# xmcd CD database file
#
# Track frame offsets:
#	150
#	22577
#	41320
#	63742
#
# Disc length: 1098 seconds
#
# Revision: 3
# Processed by: cddbd v1.5.1PL0 Copyright (c) Steve Scherf et al.
# Submitted via: CDex 1.51
#
DISCID=25044804
DTITLE=冬馬　由美 - この夜のときめきを・・・
DYEAR=1995
DGENRE=Pop
TTITLE0=この夜のときめきを・・・
TTITLE1=ラッキーの合図
TTITLE2=この夜のときめきを・・・(ORIGINAL KARAOKE)
TTITLE3=ラッキーの合図(ORIGINAL KARAOKE)
EXTD=YEAR: 1995
EXTT0=
EXTT1=
EXTT2=
EXTT3=
PLAYORDER=
